<?xml version="1.0" encoding="UTF-8" standalone="no"?>
<!-- Created with Inkscape (http://www.inkscape.org/) -->

<svg
   width="42.728722mm"
   height="18.000002mm"
   viewBox="0 0 42.728722 18.000002"
   version="1.1"
   id="svg5"
   inkscape:version="1.1 (c4e8f9ed74, 2021-05-24)"
   sodipodi:docname="H-BRS.svg"
   xmlns:inkscape="http://www.inkscape.org/namespaces/inkscape"
   xmlns:sodipodi="http://sodipodi.sourceforge.net/DTD/sodipodi-0.dtd"
   xmlns="http://www.w3.org/2000/svg"
   xmlns:svg="http://www.w3.org/2000/svg">
  <sodipodi:namedview
     id="namedview7"
     pagecolor="#ffffff"
     bordercolor="#666666"
     borderopacity="1.0"
     inkscape:pageshadow="2"
     inkscape:pageopacity="0.0"
     inkscape:pagecheckerboard="0"
     inkscape:document-units="mm"
     showgrid="false"
     fit-margin-top="0"
     fit-margin-left="0"
     fit-margin-right="0"
     fit-margin-bottom="0"
     inkscape:zoom="2.4001019"
     inkscape:cx="62.289021"
     inkscape:cy="47.289658"
     inkscape:window-width="1920"
     inkscape:window-height="1025"
     inkscape:window-x="0"
     inkscape:window-y="0"
     inkscape:window-maximized="1"
     inkscape:current-layer="layer1" />
  <defs
     id="defs2" />
  <g
     inkscape:label="Ebene 1"
     inkscape:groupmode="layer"
     id="layer1"
     transform="translate(-47.374377,-30.291821)">
    <path
       style="fill:#000000;stroke-width:0.999999"
       d="m 80.433678,48.286727 c -1.69221,-0.106397 -3.26943,-0.635758 -4.63504,-1.555664 -1.5982,-1.076585 -2.81052,-2.620524 -3.45746,-4.403243 -0.26031,-0.717318 -0.41715,-1.421 -0.49903,-2.239023 -0.0347,-0.347022 -0.0348,-1.232872 -2e-4,-1.58479 0.0517,-0.526141 0.12802,-0.963985 0.2503,-1.437858 0.35278,-1.367075 1.0202,-2.615646 1.97707,-3.698562 0.19293,-0.218354 0.64897,-0.667953 0.86712,-0.854885 1.76622,-1.513458 4.01952,-2.298951 6.35331,-2.214751 1.06006,0.03825 2.02491,0.233024 2.99231,0.604071 3.01552,1.156615 5.19353,3.803257 5.70863,6.936939 0.0947,0.576144 0.12029,0.949473 0.11044,1.611056 -0.0117,0.784019 -0.086,1.340919 -0.27882,2.089146 -0.64085,2.48692 -2.36961,4.607757 -4.71208,5.780762 -1.04257,0.522068 -2.08719,0.820378 -3.29693,0.941495 -0.22183,0.02221 -1.15628,0.03935 -1.37962,0.02531 z m -24.64009,-0.261411 c -2.61074,-0.129673 -5.02357,-1.385172 -6.61857,-3.44392 -0.99753,-1.28755 -1.58409,-2.758886 -1.76848,-4.435999 -0.0304,-0.276958 -0.043,-1.127436 -0.0212,-1.43241 0.15401,-2.15135 1.05688,-4.101562 2.59989,-5.615783 1.96953,-1.932793 4.74379,-2.841243 7.51145,-2.459674 3.69427,0.509318 6.68897,3.266462 7.44983,6.858849 0.19067,0.900265 0.2358,1.839607 0.13339,2.776367 -0.25573,2.339335 -1.5146,4.526179 -3.43729,5.971104 -1.67522,1.258947 -3.73545,1.886443 -5.84901,1.781466 z m 1.10171,-3.68371 c 0.88524,-0.112757 1.63745,-0.392627 2.35596,-0.876561 0.52502,-0.35362 1.03239,-0.86087 1.38849,-1.388185 0.89885,-1.331031 1.11928,-2.988754 0.59846,-4.500724 -0.34924,-1.013865 -1.0089,-1.891908 -1.89448,-2.521673 -1.37613,-0.978608 -3.14791,-1.238276 -4.75487,-0.696867 -1.31402,0.442714 -2.40875,1.398199 -3.01595,2.632344 -0.32641,0.66342 -0.49507,1.348579 -0.51724,2.101288 -0.0459,1.55851 0.62939,3.043692 1.84713,4.06234 0.83146,0.695515 1.85388,1.111975 2.96663,1.208388 0.20908,0.01812 0.81884,0.006 1.02587,-0.02035 z"
       id="path866" />
  </g>
</svg>
