<?xml version="1.0" encoding="UTF-8" standalone="no"?>
<!-- Created with Inkscape (http://www.inkscape.org/) -->

<svg
   width="28.793308mm"
   height="20.000217mm"
   viewBox="0 0 28.793308 20.000217"
   version="1.1"
   id="svg1068"
   inkscape:version="1.1 (c4e8f9ed74, 2021-05-24)"
   sodipodi:docname="ISF.svg"
   xmlns:inkscape="http://www.inkscape.org/namespaces/inkscape"
   xmlns:sodipodi="http://sodipodi.sourceforge.net/DTD/sodipodi-0.dtd"
   xmlns="http://www.w3.org/2000/svg"
   xmlns:svg="http://www.w3.org/2000/svg">
  <sodipodi:namedview
     id="namedview1070"
     pagecolor="#ffffff"
     bordercolor="#666666"
     borderopacity="1.0"
     inkscape:pageshadow="2"
     inkscape:pageopacity="0.0"
     inkscape:pagecheckerboard="0"
     inkscape:document-units="mm"
     showgrid="false"
     inkscape:zoom="5.238821"
     inkscape:cx="54.496995"
     inkscape:cy="42.471388"
     inkscape:window-width="1920"
     inkscape:window-height="1025"
     inkscape:window-x="0"
     inkscape:window-y="0"
     inkscape:window-maximized="1"
     inkscape:current-layer="layer1"
     fit-margin-top="0"
     fit-margin-left="0"
     fit-margin-right="0"
     fit-margin-bottom="0" />
  <defs
     id="defs1065" />
  <g
     inkscape:label="Ebene 1"
     inkscape:groupmode="layer"
     id="layer1"
     transform="translate(-14.605398,-85.543272)">
    <path
       style="fill:#000000;stroke-width:0.999998"
       d="m 18.411372,105.52905 c -0.51151,-0.012 -0.844662,-0.0568 -1.297801,-0.17458 -1.356918,-0.35258 -2.208893,-1.13577 -2.470433,-2.27096 l -0.02974,-0.12908 -0.004,-7.243168 -0.004,-7.243167 0.07373,0.142496 c 0.215595,0.416684 0.5604,0.753975 0.97451,0.953272 0.175584,0.0845 0.288992,0.124235 0.487213,0.170685 0.150821,0.03534 0.18122,0.03788 0.45234,0.03779 0.249991,-8.2e-5 0.309367,-0.0043 0.424415,-0.02991 0.664198,-0.14804 1.180595,-0.539048 1.488453,-1.12703 l 0.06995,-0.133608 0.009,0.752921 c 0.0049,0.414107 0.0095,2.721432 0.01019,5.127393 6.7e-4,2.405959 0.0057,5.086233 0.01117,5.956166 l 0.01,1.5817 0.03422,0.0744 c 0.104637,0.22739 0.320499,0.40228 0.600078,0.48619 l 0.09561,0.0287 2.709529,-0.005 c 2.868182,-0.005 2.766728,-0.003 3.115093,-0.0714 0.479347,-0.094 0.860951,-0.22814 1.345116,-0.47277 0.263367,-0.13307 0.424175,-0.23715 0.58089,-0.37597 0.220097,-0.19497 0.343875,-0.3581 0.473336,-0.62381 0.08678,-0.1781 0.134797,-0.31869 0.171432,-0.5019 0.03425,-0.17129 0.03447,-0.674359 3.68e-4,-0.856738 -0.02842,-0.151988 -0.09904,-0.369461 -0.158799,-0.488993 -0.158164,-0.316382 -0.471459,-0.637634 -0.898245,-0.921054 -0.412159,-0.273707 -1.605608,-0.803597 -3.03496,-1.347519 -0.854521,-0.325176 -1.824901,-0.830579 -2.508948,-1.306735 -0.71512,-0.497785 -1.153048,-0.990533 -1.548417,-1.742246 -0.236733,-0.4501 -0.394176,-0.943416 -0.470208,-1.473301 -0.106418,-0.741658 -0.04068,-1.728109 0.170276,-2.555045 0.338729,-1.327809 1.080683,-2.316154 2.234852,-2.977013 1.065177,-0.609904 2.136589,-0.946787 3.454042,-1.086051 0.458436,-0.04846 1.88166,-0.05554 9.814616,-0.04881 6.417394,0.0054 7.271709,0.0085 7.364188,0.02667 0.316241,0.06199 0.590935,0.211348 0.813667,0.442398 0.298201,0.309334 0.442713,0.692431 0.422788,1.12077 -0.01808,0.388617 -0.16815,0.730335 -0.44045,1.002921 -0.196044,0.196252 -0.421711,0.324856 -0.703601,0.400972 l -0.129425,0.03495 -1.324839,0.0094 c -0.728661,0.0051 -2.007705,0.01009 -2.842318,0.01099 l -1.517481,0.0016 v 2.492333 2.492331 l 2.436756,0.0095 c 2.661015,0.01035 2.582199,0.0078 2.826002,0.08951 0.468832,0.157038 0.836871,0.540759 0.974639,1.01617 0.22675,0.782463 -0.188487,1.589713 -0.960356,1.867006 -0.224062,0.08049 -0.09095,0.07684 -2.795601,0.07684 h -2.476955 l -0.009,2.496455 c -0.005,1.373049 -0.009,3.356249 -0.009,4.407109 v 1.91066 h -1.991759 -1.991771 l -0.009,-4.18743 c -0.0049,-2.303089 -0.009,-6.096545 -0.009,-8.429902 l -3e-6,-4.242467 -3.227604,0.0058 c -2.375878,0.0043 -3.268613,0.01011 -3.383012,0.02203 -0.311752,0.0325 -0.707323,0.125263 -0.962838,0.225789 -0.504901,0.198643 -0.861969,0.466008 -1.151506,0.862222 -0.248668,0.340286 -0.386351,0.710609 -0.441924,1.188631 -0.0199,0.171142 -0.0085,0.576132 0.01982,0.702013 0.02746,0.122235 0.0985,0.293333 0.178984,0.431122 0.113408,0.194143 0.463259,0.522937 0.7875,0.740098 0.395882,0.265142 0.757939,0.43643 1.745651,0.825859 0.918539,0.362158 2.138573,0.854373 2.362632,0.953188 0.289627,0.127734 0.851153,0.407354 1.000377,0.498155 0.508689,0.309526 0.869056,0.597986 1.279135,1.023904 0.234534,0.24359 0.377314,0.420627 0.555193,0.688399 0.253159,0.381097 0.409558,0.680073 0.498566,0.953073 0.360671,1.106221 0.349886,2.675736 -0.0267,3.886396 -0.326505,1.04964 -0.959626,1.89379 -1.858767,2.4783 -0.898003,0.58378 -2.038308,1.01073 -3.235884,1.21157 -0.67235,0.11276 -0.950391,0.13534 -1.84531,0.14983 -0.861362,0.0139 -5.7044,0.0133 -6.306499,-8e-4 z M 16.36328,89.515253 c -0.220448,-0.02707 -0.475233,-0.106155 -0.680467,-0.211223 -0.541663,-0.277301 -0.916502,-0.775142 -1.045982,-1.389217 -0.03458,-0.163997 -0.03442,-0.60785 2.71e-4,-0.770568 0.05607,-0.262962 0.162519,-0.51509 0.314868,-0.745764 0.09397,-0.142278 0.375953,-0.420198 0.530297,-0.522651 0.224888,-0.14928 0.486567,-0.255215 0.759344,-0.307404 0.17374,-0.03324 0.52411,-0.0336 0.702075,-7.02e-4 0.754959,0.139501 1.364836,0.691966 1.568739,1.421063 0.07086,0.253368 0.09066,0.600068 0.04904,0.858695 -0.130415,0.810453 -0.72283,1.439516 -1.535767,1.630776 -0.115566,0.02719 -0.185916,0.03427 -0.378525,0.0381 -0.130118,0.0026 -0.25787,0.0021 -0.283894,-0.0011 z m 0.533991,-0.850007 c 0.20666,-0.05733 0.45615,-0.213993 0.582909,-0.366025 0.215204,-0.258107 0.317695,-0.591745 0.275896,-0.89812 -0.05554,-0.407119 -0.293102,-0.737995 -0.655279,-0.912687 -0.188805,-0.09107 -0.264788,-0.107351 -0.500938,-0.107351 -0.24019,0 -0.313212,0.01624 -0.513713,0.114253 -0.302903,0.14807 -0.528806,0.42324 -0.616579,0.751049 -0.03462,0.129308 -0.04159,0.399378 -0.01358,0.526502 0.09608,0.436062 0.42557,0.778828 0.85925,0.893884 0.10868,0.02883 0.143598,0.03183 0.311656,0.02673 0.118082,-0.0036 0.219768,-0.01419 0.270375,-0.02824 z"
       id="path1325" />
  </g>
</svg>
